<svg xmlns="http://www.w3.org/2000/svg" xmlns:xlink="http://www.w3.org/1999/xlink" version="1.1" enable-background="new 0 0 512 512" width="512" height="512" style=""><rect id="backgroundrect" width="100%" height="100%" x="0" y="0" fill="none" stroke="none"/>
  
<g class="currentLayer" style=""><title>Layer 1</title><g id="svg_1" class="selected" stroke-opacity="1" stroke="#00f7ef" fill="#8a8ae9" fill-opacity="1">
    <g fill="#8a8ae9" id="svg_2" stroke="#00f7ef" stroke-opacity="1" fill-opacity="1">
      <path d="m211.3,156.2c-45.3,0-85.5,28.9-100,71.8-1.3,3.8-4.7,6.6-8.7,7-40.3,4.4-70.7,38.3-70.7,78.9 0,43.8 35.6,79.4 79.4,79.4h289.4c43.8,0 79.4-35.6 79.4-79.4 0-29.4-16.2-56.3-42.2-70.2-3.7-2-5.9-6-5.5-10.2 0.3-3.1 0.5-6.3 0.5-9.5 0-58.2-47.4-105.6-105.6-105.6-31,0-60.4,13.6-80.5,37.4-2.5,3-6.6,4.3-10.4,3.4-8.6-1.9-17-3-25.1-3zm189.4,258.1h-289.4c-55.3,0-100.3-45-100.3-100.3 0-49.1 35.2-90.4 82.8-98.7 19-48 65.4-79.9 117.5-79.9 7.8,0 15.7,0.8 23.8,2.4 23.9-25.5 57.2-40 92.2-40 69.7,0 126.4,56.7 126.4,126.4 0,1.6 0,3.1-0.1,4.7 29.4,18.2 47.4,50.2 47.4,85.1 0,55.3-45,100.3-100.3,100.3z" id="svg_3" stroke="#00f7ef" stroke-opacity="1" fill="#8a8ae9" fill-opacity="1"/>
      <path d="m211.3,156.2c-45.3,0-85.5,28.9-100,71.8-1.3,3.8-4.7,6.6-8.7,7-40.3,4.4-70.7,38.3-70.7,78.9 0,43.8 35.6,79.4 79.4,79.4h289.4c43.8,0 79.4-35.6 79.4-79.4 0-29.4-16.2-56.3-42.2-70.2-3.7-2-5.9-6-5.5-10.2 0.3-3.1 0.5-6.3 0.5-9.5 0-58.2-47.4-105.6-105.6-105.6-31,0-60.4,13.6-80.5,37.4-2.5,3-6.6,4.3-10.4,3.4-8.6-1.9-17-3-25.1-3zm189.4,258.1h-289.4c-55.3,0-100.3-45-100.3-100.3 0-49.1 35.2-90.4 82.8-98.7 19-48 65.4-79.9 117.5-79.9 7.8,0 15.7,0.8 23.8,2.4 23.9-25.5 57.2-40 92.2-40 69.7,0 126.4,56.7 126.4,126.4 0,1.6 0,3.1-0.1,4.7 29.4,18.2 47.4,50.2 47.4,85.1 0,55.3-45,100.3-100.3,100.3z" id="svg_4" stroke="#00f7ef" stroke-opacity="1" fill="#8a8ae9" fill-opacity="1"/>
    </g>
  </g></g></svg>