<?xml version="1.0" standalone="no"?>
<!DOCTYPE svg PUBLIC "-//W3C//DTD SVG 20010904//EN"
 "http://www.w3.org/TR/2001/REC-SVG-20010904/DTD/svg10.dtd">
<svg version="1.0" xmlns="http://www.w3.org/2000/svg"
 width="1280.000000pt" height="1280.000000pt" viewBox="0 0 1280.000000 1280.000000"
 preserveAspectRatio="xMidYMid meet">
<metadata>
Created by potrace 1.15, written by Peter Selinger 2001-2017
</metadata>
<g transform="translate(0.000000,1280.000000) scale(0.100000,-0.100000)"
fill="#32e8f5" stroke="none">
<path d="M6150 12794 c-168 -12 -406 -37 -558 -59 l-172 -24 -54 -58 c-29 -32
-93 -102 -142 -156 l-90 -98 -13 -162 c-35 -452 -101 -748 -219 -980 -49 -97
-69 -124 -147 -203 -143 -144 -285 -204 -480 -204 -295 0 -594 161 -1091 585
l-132 112 -210 8 -211 7 -83 -63 c-483 -365 -906 -783 -1257 -1239 l-73 -94 6
-136 c4 -74 9 -170 12 -213 l6 -78 97 -112 c321 -370 500 -642 576 -877 40
-122 46 -284 16 -395 -35 -128 -83 -208 -181 -305 -47 -47 -111 -100 -142
-118 -145 -86 -348 -153 -593 -197 -139 -25 -499 -65 -583 -65 -43 0 -49 -4
-202 -145 l-158 -145 -11 -77 c-81 -559 -79 -1260 5 -1855 6 -46 12 -52 161
-187 115 -105 163 -142 186 -145 18 -2 125 -12 238 -20 432 -34 684 -89 904
-196 166 -81 276 -189 340 -335 74 -167 74 -374 -1 -572 -87 -231 -281 -521
-571 -855 l-84 -97 -10 -211 -10 -212 71 -94 c305 -401 730 -817 1213 -1187
l127 -98 211 7 212 7 116 99 c363 310 637 483 876 554 77 23 109 27 220 28
120 0 137 -2 218 -31 296 -104 463 -338 561 -783 38 -177 86 -558 86 -693 0
-36 10 -50 144 -196 l145 -157 78 -12 c240 -36 617 -62 898 -62 285 0 691 29
899 63 l70 12 142 154 142 155 7 90 c61 828 214 1217 545 1385 122 62 178 75
320 75 105 -1 139 -5 215 -28 243 -72 536 -258 909 -579 l90 -77 70 0 c39 0
134 -3 211 -6 l140 -6 150 117 c457 355 866 756 1171 1149 l86 110 -7 205 c-8
240 13 191 -185 427 -504 600 -642 996 -468 1347 60 120 168 225 303 294 110
56 179 81 318 117 176 46 477 87 747 102 63 3 127 12 142 19 14 7 91 72 171
144 163 150 143 110 172 341 31 255 39 416 40 780 0 380 -8 521 -45 823 -11
86 -20 159 -20 161 0 2 -72 70 -159 150 -157 144 -160 146 -205 146 -75 0
-431 38 -561 60 -239 41 -386 85 -550 166 -225 110 -350 256 -405 471 -81 316
77 656 575 1238 l120 140 7 140 c3 77 7 174 7 215 l0 75 -90 115 c-342 437
-763 851 -1221 1199 l-97 73 -211 -7 -210 -8 -128 -109 c-400 -343 -679 -515
-927 -573 -86 -20 -249 -19 -329 1 -101 25 -218 89 -295 161 -230 212 -341
571 -396 1285 l-7 87 -139 153 c-84 91 -150 156 -165 160 -30 8 -372 53 -519
68 -104 11 -580 21 -675 14z m582 -4783 c223 -49 439 -142 618 -269 122 -86
306 -270 392 -392 126 -178 220 -395 270 -623 19 -89 22 -132 22 -327 0 -196
-3 -238 -22 -327 -49 -225 -145 -447 -270 -623 -85 -120 -270 -306 -387 -388
-223 -158 -482 -258 -750 -293 -130 -17 -414 -6 -537 20 -586 126 -1059 542
-1242 1092 -65 194 -80 290 -80 514 -1 173 2 215 23 315 143 689 680 1201
1380 1315 130 21 456 13 583 -14z"/>
</g>
</svg>
